<svg xmlns="http://www.w3.org/2000/svg" viewBox="0 0 256 256" style="user-select: none; width: 100%; height: 100%; display: inline-block; fill: rgb(119, 119, 119); flex-shrink: 0; cursor: pointer;" focusable="false" color="rgb(119, 119, 119)"><g color="rgb(119, 119, 119)" weight="fill"><g><circle cx="128" cy="128" r="32"></circle><path d="M172,28H84A56.06353,56.06353,0,0,0,28,84v88a56.06353,56.06353,0,0,0,56,56h88a56.06353,56.06353,0,0,0,56-56V84A56.06353,56.06353,0,0,0,172,28ZM128,176a48,48,0,1,1,48-48A48.05436,48.05436,0,0,1,128,176Zm52-88a12,12,0,1,1,12-12A12,12,0,0,1,180,88Z"></path></g></g></svg>